<?xml version="1.0" encoding="UTF-8"?>
<svg width="32px" height="32px" viewBox="0 0 32 32" version="1.1" xmlns="http://www.w3.org/2000/svg" xmlns:xlink="http://www.w3.org/1999/xlink">
    <defs>
        <path d="M26,8 L26,24 L6,24 L6,8 L26,8 Z M14,10 L14,22 L24,22 L24,10 L14,10 Z M8,10 L8,22 L12,22 L12,10 L8,10 Z M11,11 L11,13 L9,13 L9,11 L11,11 Z M11,15 L11,17 L9,17 L9,15 L11,15 Z M11,19 L11,21 L9,21 L9,19 L11,19 Z" id="path-1"></path>
    </defs>
    <g stroke="none" stroke-width="1" fill="none" fill-rule="evenodd">
        <g>
            <mask id="mask-2" fill="white">
                <use xlink:href="#path-1"></use>
            </mask>
            <use id="Mask" fill="#000000" fill-rule="nonzero" xlink:href="#path-1"></use>
            <g mask="url(#mask-2)" fill="#FFFFFF">
                <rect id="Fill" x="0" y="0" width="32" height="32"></rect>
            </g>
        </g>
    </g>
</svg>
